Mission.Impossible.Ghost.Protocol.2011.BRRip.XviD-RLF
~~~~~~~~~~~~~~~~~~~~~~~~~~~~~~~~~~~~~~~~~~~~~~~~~~~~~ 
                                           

GENERAL:


Complete name                    : rlf-protocol.avi
Format                           : AVI
Format/Info                      : Audio Video Interleave
File size                        : 721 GiB
Duration                         : 2h 12mn
Overall bit rate                 : 759 Kbps
Language                         : English
Subs                             : Polish, English, English forced 
Encoder                          : Ralf

Video:

                     
Format                           : MPEG-4 Visual
Format profile                   : Advanced Simple@L5
Format settings, BVOP            : 2
Format settings, QPel            : No
Format settings, GMC             : No warppoints
Format settings, Matrix          : H.263
Muxing mode                      : Packed bitstream
Codec ID                         : XVID
Duration                         : 2h 12mn
Bit rate                         : 638 Kbps
Width                            : 688 pixels
Height                           : 288 pixels
Display aspect ratio             : 2.35:1
Color space                      : YUV
Chroma subsampling               : 4:2:0
Bit depth                        : 8 bits
Scan type                        : Progressive
Bits/(Pixel Frame)               : 0.134
Stream size                      : 606 MiB (84%)      
Stream size                      : Xvid 64

Audio:


Format                           : MPEG Audio
Codec ID/Hint                    : MP3
Duration                         : 2h 12mn
Bit rate mode                    : Constant
Bit rate                         : 112 Kbps
Channel(s)                       : 2 channels
Sampling rate                    : 48.0 KHz
Stream size                      : 106 MiB (15%)
Alignment                        : Split accross interleaves
Interleave, duration             : 42 ms (1.00 video frame)
Interleave, preload duration     : 500 ms
                   

MOVIE INFO:


The IMF is shut down when it's implicated in the bombing of the Kremlin, 
causing Ethan Hunt and his new team to go rogue to clear their 
organization's name. 
                                           
http://www.imdb.com/title/tt1229238/ 
http://www.filmweb.pl/film/Mission%3A+Impossible+-+Ghost+Protocol-2011-483087


SOURCE:


SPARKS 720p.BluRay.x264 (THX)


SCREENS:

 
http://www.postimg.com/65000/photo-64434.jpg 
http://www.postimg.com/65000/photo-64435.jpg 
http://www.postimg.com/65000/photo-64436.jpg 
http://www.postimg.com/65000/photo-64437.jpg